/* XPM */
static const char *ICONmain[] = {
/* columns rows colors chars-per-pixel */
"32 21 135 2 ",
"   c None",
".  c #6F7D7B",
"X  c #777974",
"o  c #DF3E1C",
"O  c #DE3F1D",
"+  c #E33F1A",
"@  c #E53E18",
"#  c #E43F19",
"$  c #E63E18",
"%  c #D73E21",
"&  c #B7563E",
"*  c #BB553B",
"=  c #BA553C",
"-  c #DB401F",
";  c #DF411D",
":  c #DE421E",
">  c #E1401B",
",  c #E0411C",
"<  c #CF4A2B",
"1  c #CD4B2C",
"2  c #CB4C2E",
"3  c #CA4D2F",
"4  c #CC4C2E",
"5  c #D74021",
"6  c #D74022",
"7  c #D74122",
"8  c #D74523",
"9  c #D74624",
"0  c #D84021",
"q  c #D84122",
"w  c #D84222",
"e  c #D84322",
"r  c #DA4421",
"t  c #D94422",
"y  c #D94522",
"u  c #D84423",
"i  c #D84523",
"p  c #D94523",
"a  c #D84624",
"s  c #D84724",
"d  c #D94924",
"f  c #D94B25",
"g  c #D14929",
"h  c #DA5428",
"j  c #DB5A29",
"k  c #DB5B2A",
"l  c #DC5D2B",
"z  c #DC5F2B",
"x  c #C05237",
"c  c #DD652D",
"v  c #DE682E",
"b  c #E07833",
"n  c #9A6657",
"m  c #9C6555",
"M  c #97685A",
"N  c #8F6C60",
"B  c #81746C",
"V  c #E18136",
"C  c #E28437",
"Z  c #E38C39",
"A  c #E5993D",
"S  c #E69D3F",
"D  c #E69E3F",
"F  c #F9B93E",
"G  c #F8B93F",
"H  c #F9BA3E",
"J  c #89AF7F",
"K  c #9EB073",
"L  c #9EB173",
"P  c #A6B16F",
"I  c #DCB74F",
"U  c #DDB74F",
"Y  c #CBB559",
"T  c #C9B55A",
"R  c #CCB558",
"E  c #CDB558",
"W  c #E7A541",
"Q  c #E7A842",
"!  c #E8AE44",
"~  c #EAB747",
"^  c #E9B847",
"/  c #EBB846",
"(  c #EAB847",
")  c #EBB847",
"_  c #EDB845",
"`  c #EFBB45",
"'  c #EFBC45",
"]  c #E2B74B",
"[  c #E3B74B",
"{  c #EABA48",
"}  c #EABB48",
"|  c #EBBC48",
" . c #EBBD48",
".. c #EBBD49",
"X. c #EBBE49",
"o. c #EBBF49",
"O. c #F0B843",
"+. c #F0B943",
"@. c #F2B942",
"#. c #F3B942",
"$. c #F3BB43",
"%. c #F4B941",
"&. c #F7B940",
"*. c #F3BC43",
"=. c #3F97A3",
"-. c #399AA8",
";. c #1BA4BF",
":. c #1CA4BE",
">. c #1DA4BE",
",. c #1CA4BF",
"<. c #1FA7BE",
"1. c #3AA7AD",
"2. c #3BA7AD",
"3. c #21A5BB",
"4. c #23A6BB",
"5. c #24A5BA",
"6. c #25A5BA",
"7. c #21A5BC",
"8. c #22A5BC",
"9. c #21A6BC",
"0. c #22A6BC",
"q. c #22A7BC",
"w. c #34A7B1",
"e. c #48929C",
"r. c #698080",
"t. c #7AAD88",
"y. c #7AAE88",
"u. c #42A8A8",
"i. c #43A8A8",
"p. c #19A4C0",
"a. c #1BAAC1",
"s. c #19ABC3",
"d. c #1AAAC2",
"f. c #1CA9C1",
"g. c #1EA8C0",
/* pixels */
"2 i * . 0.0.5.5.;.2.K U ( ( ( ( ( ( ( ( U K 1.,.5.5.0.,.r.= d i ",
"2 i : $ n g.0.p.i.U G _ ( ( ( ( ( ( ( ( _ G I u.p.5.d.N > > i i ",
"  a i i $ X   w.Y @.( (   ( ( ( ( ( (   ( ( @.Y w.  X $ i i i   ",
"      i : +     @.( (                     ( ( #.    : i i       ",
"        i 5   ' ( (                         ( ( '   % i i       ",
"        i 5   } ( (                         ( ( X.  w i         ",
"        a 5 k } (                             ~ ( c w i         ",
"          8 d W }                             } ! d i i         ",
"          a % C X.                            X.Z % a           ",
"          5 5 l                                 c % w           ",
"          v 5 a                                 d 5 l           ",
"          W i w                                 i 5 D           ",
"          } k 5 a                             i w h ~           ",
"        } X.V % i                             i % b X.~         ",
"        ~ ..S w i                             i 5 A X.~         ",
"        ~ }   w i i                         i i w   X.(         ",
"      ( ( ..    i i                         i i :   ..( (       ",
"      ( _ @.    , i i                       i ,     *._ (       ",
"  ( ( _ #.J     = > i i                 i i > *     J #.} ~ (   ",
"] ( @.G P ,.8.d.=.4 $ i i i i i i i i i i $ g e.s.0.,.P F @.( ( ",
"] ( E y.8.0.8.8.g.-.M 1 i i i i i i i i g n =.g.5.5.8.8.t.E ~ ~ "
};
