/* XPM */
static const char *icon[] = {
/* columns rows colors chars-per-pixel */
"64 64 75 1 ",
"  c None",
". c gray7",
"X c #211215",
"o c #301318",
"O c #111F21",
"+ c #102C30",
"@ c #0F3A3E",
"# c #4D131F",
"$ c #4C3E15",
"% c #5C1422",
"& c #6B1425",
"* c #7A1428",
"= c #1D483E",
"- c #2D4A2F",
"; c #4C4D11",
": c #0E474D",
"> c #0C545C",
", c #0B616B",
"< c #0A6E7A",
"1 c #58485D",
"2 c #56566C",
"3 c #89152B",
"4 c #A61531",
"5 c #B51534",
"6 c #C41638",
"7 c #E1163E",
"8 c #FE343D",
"9 c #FE423A",
"0 c #FE5137",
"q c #FD5F33",
"w c #FD7C2D",
"e c #FD6D30",
"r c #A52240",
"t c #A4304F",
"y c #F01741",
"u c #FF1744",
"i c #FF2541",
"p c #EF2450",
"a c #AF577E",
"s c #7FD769",
"d c #DEA61D",
"f c #DF9820",
"g c #FCA723",
"h c #C0C210",
"j c #FBC41C",
"k c #FAFD0F",
"l c #FAEF12",
"z c #EAFC1E",
"x c #DBFA2D",
"c c #CBF93C",
"v c #9FDA4B",
"b c #BCF74B",
"n c #ACF65A",
"m c #8DF378",
"M c #097C89",
"N c #9F648A",
"B c #088997",
"V c #17899A",
"C c #0796A6",
"Z c #1696A9",
"A c #06A3B5",
"S c #6098B9",
"D c #7DF187",
"F c #5EEEA5",
"G c #05B0C4",
"H c #03BDD3",
"J c #50A5C5",
"K c #3FEBC3",
"L c #2FEAD2",
"P c #02CBE1",
"I c #01D8F0",
"U c #10D8F3",
"Y c #1FE8E1",
"T c #00E5FF",
"R c #10E7F0",
/* pixels */
"      ....................................................      ",
"    ........................................................    ",
"   ..........................................................   ",
"  ............................................................  ",
" .............................................................. ",
" .............................................................. ",
"................................................................",
"................................................................",
"................................................................",
"................................................................",
"................................................................",
"................................................................",
"................................................................",
".....o##;;;;;;;;;;;;;;;;=::::::::::::::-;;;;;;;;;;;;;;;;##o.....",
".....3uuu9gkkkkkkkkkkcFRTTTTTTTTTTTTTTTTRFxkkkkkkkkkkg9uuu3.....",
".....3uuuuu9lkkkkkkkDTTTTTTTTTTTTTTTTTTTTTTmkkkkkkkl9uuuuu3.....",
".....3uuuuuuilkkkkkFTTTTTTTTTTTTTTTTTTTTTTTTDkkkkkl8uuuuuu3.....",
".....3uuuuuuu0kkkknTTTTTTTTTTTTTTTTTTTTTTTTTTbkkkk0uuuuuuu3.....",
".....&67uuuuuufhhhRTTTTTTGGGGGGGGGGGGGGTTTTTTYhhhduuuuuu76&.....",
"........%yuuuu5..>TTTTTCO..............OATTTTT@..5uuuuy%........",
".........&uuuuuX.CTTTTG..................PTTTTB.Xuuuuu*.........",
"..........yuuuu&.ITTTT,..................<TTTTP.&uuuuy..........",
"..........4uuuu5>TTTTTO..................+TTTTT@5uuuu4..........",
"..........%uuuuuZTTTTA....................HTTTTVuuuuu%..........",
"...........yuuuuSTTTT,....................<TTTTSuuuuy...........",
"...........4uuuuaTTTTO....................+TTTTauuuu4...........",
"...........%uuuuuUTTA......................HTTUuuuuu%...........",
"............yuuuuSTT,......................<TTSuuuuy............",
"............4uuuuaTTO......................+TTauuuu4............",
"............%uuuuuUA........................HUuuuuu%............",
".............yuuuuS,........................<Suuuuy.............",
".............4uuuuaO........................+auuuu4.............",
".............2uuuuuX........................Xuuuuu1.............",
".............Ipuuuu&........................&uuuupP.............",
"............>TNuuuu5........................5uuuuNT@............",
"............CTJuuuuuX......................XuuuuuJTB............",
"............ITTpuuuu&......................&uuuupTTP............",
"...........>TTTNuuuu5......................5uuuuNTTT@...........",
"...........CTTTJuuuuuX....................XuuuuuJTTTB...........",
"...........ITTTTpuuuu&....................&uuuupTTTTP...........",
"..........>TTTTTruuuu5....................5uuuutTTTTT@..........",
"..........CTTTTA%uuuuuX..................Xuuuuu%HTTTTB..........",
"..........ITTTT,.yuuuu&..................&uuuuy.<TTTTP..........",
".........,TTTTTO.4uuuu6..................6uuuu4.+TTTTT:.........",
"........:ITTTTA..%uuuuu4................4uuuuu%..HTTTTI@........",
".....,GHTTTTTTvhhh8uuuuuy66666666666666yuuuuu8hhhsTTTTTTHG@.....",
".....MTTTTTTTKkkkkguuuuuuuuuuuuuuuuuuuuuuuuuugkkkkLTTTTTTT:.....",
".....MTTTTTTRxkkkkkeuuuuuuuuuuuuuuuuuuuuuuuuekkkkkcRTTTTTT:.....",
".....MTTTTTLckkkkkkkwuuuuuuuuuuuuuuuuuuuuuuwkkkkkkkcYTTTTT:.....",
".....MTTTYDkkkkkkkkkkjquuuuuuuuuuuuuuuuuuqjkkkkkkkkkzDYTTT:.....",
".....+::-;;;;;;;;;;;;;;$################$;;;;;;;;;;;;;;=::O.....",
"................................................................",
"................................................................",
"................................................................",
"................................................................",
"................................................................",
"................................................................",
"................................................................",
" .............................................................. ",
" .............................................................. ",
"  ............................................................  ",
"   ..........................................................   ",
"    ........................................................    ",
"      ....................................................      "
};
