/* XPM */
static const char *start[] = {
/* columns rows colors chars-per-pixel */
"27 21 48 1 ",
"  c None",
". c #609619",
"X c #649B1C",
"o c #6FAC1B",
"O c #6BAC1E",
"+ c #6BAC1F",
"@ c #70AD1C",
"# c #77B91D",
"$ c #77B91E",
"% c #7BBF1D",
"& c #548620",
"* c #5D9321",
"= c #6AA521",
"- c #71B020",
"; c #7CBF21",
": c #7BC01E",
"> c #7EC41F",
", c #82C91E",
"< c #82C91F",
"1 c #82CA1E",
"2 c #83CA1E",
"3 c #83CB1E",
"4 c #83CA1F",
"5 c #84CB1E",
"6 c #84CC1E",
"7 c #85CD1E",
"8 c #85CE1E",
"9 c #86CF1E",
"0 c #87CF1E",
"q c #86CF1F",
"w c #87CF1F",
"e c #87D01E",
"r c #87D11E",
"t c #87D01F",
"y c #88D11D",
"u c #89D21C",
"i c #88D21D",
"p c #89D31D",
"a c #88D11E",
"s c #88D21E",
"d c #89D31E",
"f c #89D31F",
"g c #89D41D",
"h c #8AD51E",
"j c #8BD51E",
"k c #8BD61E",
"l c #8CD71E",
"z c #87D020",
/* pixels */
"      :                    ",
"     a2e*                  ",
"     e,,a>                 ",
"     e,,22h@               ",
"     e,,2220l-             ",
"     a,222>2200&           ",
"     a22>32>>22a;          ",
"     022222222223h$        ",
"     e,,2>,,,,,,223eO      ",
"     0,,13,,,,,,>222e2     ",
"     e,,111,,,,,22222h     ",
"     h,,111,,,,,2>22eh     ",
"     e22,,,,,,,,220eX      ",
"     a22,,,,,,,,2a$        ",
"     e,,,,,,11,5h          ",
"     y,,,,,,19yO           ",
"     e222222e=             ",
"     022220%               ",
"     h2>e3.                ",
"     e33o                  ",
"      a                    "
};
