/* XPM */
static const char *zoomin[] = {
/* columns rows colors chars-per-pixel */
"21 21 28 1 ",
"  c None",
". c #138FFF",
"X c #178FFF",
"o c #1092FF",
"O c #1192FF",
"+ c #1490FF",
"@ c #1691FF",
"# c #1592FF",
"$ c #1692FF",
"% c #1795FF",
"& c #1796FF",
"* c #1697FF",
"= c #1797FF",
"- c #1893FF",
"; c #1896FF",
": c #1897FF",
"> c #1997FF",
", c #1798FF",
"< c #1799FF",
"1 c #169AFF",
"2 c #1898FF",
"3 c #1998FF",
"4 c #1899FF",
"5 c #1999FF",
"6 c #1A99FF",
"7 c #199AFF",
"8 c #1A9AFF",
"9 c #1A9BFF",
/* pixels */
"      888:*          ",
"    *88*88888        ",
"   88888*88888O      ",
"  888,     *888      ",
" 888+       O888     ",
" 88,   *88   *:8+    ",
"*8*    888    88:    ",
"888  8888*88  8*8    ",
"888  :*88:8*8 :88    ",
":*8  8888888  :88    ",
"*88    8*:    88:    ",
" 88*   888   *8,.    ",
" 888.       .88*     ",
"  8*8*     *888*     ",
"  O8,888:8*8:88::    ",
"    88:*88888*8888   ",
"     *8:88*-  ,888:  ",
"               ,8888 ",
"                *888*",
"                 *8:8",
"                  ,8 "
};
